<svg width="88" height="19" viewBox="0 0 88 19" fill="none" xmlns="http://www.w3.org/2000/svg">
<path d="M0.289062 18V0.9375H6.41797C8.61328 0.9375 10.2812 1.33984 11.4219 2.14453C12.5703 2.94922 13.1445 4.11719 13.1445 5.64844C13.1445 6.53125 12.9414 7.28516 12.5352 7.91016C12.1289 8.53516 11.5312 8.99609 10.7422 9.29297C11.6328 9.52734 12.3164 9.96484 12.793 10.6055C13.2695 11.2461 13.5078 12.0273 13.5078 12.9492C13.5078 14.6211 12.9766 15.8789 11.9141 16.7227C10.8594 17.5586 9.29297 17.9844 7.21484 18H0.289062ZM4.40234 10.7461V14.8359H7.09766C7.83984 14.8359 8.41016 14.668 8.80859 14.332C9.20703 13.9883 9.40625 13.5078 9.40625 12.8906C9.40625 11.4688 8.69922 10.7539 7.28516 10.7461H4.40234ZM4.40234 8.05078H6.54688C7.44531 8.04297 8.08594 7.87891 8.46875 7.55859C8.85156 7.23828 9.04297 6.76562 9.04297 6.14062C9.04297 5.42188 8.83594 4.90625 8.42188 4.59375C8.00781 4.27344 7.33984 4.11328 6.41797 4.11328H4.40234V8.05078ZM21.7344 18.2344C19.7891 18.2344 18.2148 17.6562 17.0117 16.5C15.8086 15.3359 15.207 13.8242 15.207 11.9648V11.6367C15.207 10.3398 15.4453 9.19531 15.9219 8.20312C16.4062 7.21094 17.1094 6.44531 18.0312 5.90625C18.9531 5.35938 20.0469 5.08594 21.3125 5.08594C23.0938 5.08594 24.5 5.64062 25.5312 6.75C26.5625 7.85156 27.0781 9.39062 27.0781 11.3672V12.9023H19.2266C19.3672 13.6133 19.6758 14.1719 20.1523 14.5781C20.6289 14.9844 21.2461 15.1875 22.0039 15.1875C23.2539 15.1875 24.2305 14.75 24.9336 13.875L26.7383 16.0078C26.2461 16.6875 25.5469 17.2305 24.6406 17.6367C23.7422 18.0352 22.7734 18.2344 21.7344 18.2344ZM21.2891 8.13281C20.1328 8.13281 19.4453 8.89844 19.2266 10.4297H23.2109V10.125C23.2266 9.49219 23.0664 9.00391 22.7305 8.66016C22.3945 8.30859 21.9141 8.13281 21.2891 8.13281ZM33.4766 14.8359H41.6328V18H28.3438V15.832L36.4766 4.11328H28.2969V0.9375H41.5508V3.04688L33.4766 14.8359ZM54.0898 10.7695H47.6211V14.8359H55.2617V18H43.5078V0.9375H55.2852V4.11328H47.6211V7.71094H54.0898V10.7695ZM63.2773 11.9766H61.0508V18H56.9375V0.9375H63.6523C65.6758 0.9375 67.2578 1.38672 68.3984 2.28516C69.5391 3.18359 70.1094 4.45312 70.1094 6.09375C70.1094 7.28125 69.8672 8.26562 69.3828 9.04688C68.9062 9.82812 68.1562 10.4609 67.1328 10.9453L70.6953 17.8242V18H66.2891L63.2773 11.9766ZM61.0508 8.80078H63.6523C64.4336 8.80078 65.0195 8.59766 65.4102 8.19141C65.8086 7.77734 66.0078 7.20312 66.0078 6.46875C66.0078 5.73438 65.8086 5.16016 65.4102 4.74609C65.0117 4.32422 64.4258 4.11328 63.6523 4.11328H61.0508V8.80078ZM87.043 9.82031C87.043 11.4844 86.7344 12.957 86.1172 14.2383C85.5 15.5195 84.6211 16.5078 83.4805 17.2031C82.3477 17.8906 81.0547 18.2344 79.6016 18.2344C78.1484 18.2344 76.8594 17.9023 75.7344 17.2383C74.6094 16.5664 73.7305 15.6094 73.0977 14.3672C72.4727 13.125 72.1445 11.6992 72.1133 10.0898V9.12891C72.1133 7.45703 72.418 5.98438 73.0273 4.71094C73.6445 3.42969 74.5234 2.44141 75.6641 1.74609C76.8125 1.05078 78.1172 0.703125 79.5781 0.703125C81.0234 0.703125 82.3125 1.04687 83.4453 1.73438C84.5781 2.42188 85.457 3.40234 86.082 4.67578C86.7148 5.94141 87.0352 7.39453 87.043 9.03516V9.82031ZM82.8594 9.10547C82.8594 7.41016 82.5742 6.125 82.0039 5.25C81.4414 4.36719 80.6328 3.92578 79.5781 3.92578C77.5156 3.92578 76.4258 5.47266 76.3086 8.56641L76.2969 9.82031C76.2969 11.4922 76.5742 12.7773 77.1289 13.6758C77.6836 14.5742 78.5078 15.0234 79.6016 15.0234C80.6406 15.0234 81.4414 14.582 82.0039 13.6992C82.5664 12.8164 82.8516 11.5469 82.8594 9.89062V9.10547Z" fill="#80C4E1"/>
</svg>
