<svg width="183" height="186" viewBox="0 0 183 186" fill="none" xmlns="http://www.w3.org/2000/svg">
<path opacity="0.4" d="M91.8937 108.187C83.5094 106.388 79.7899 112.779 78.9782 116.2L101.244 146.142L111.163 146.114L137.896 119.802L141.36 113.715L126.78 96.3725C118.674 97.5641 120.74 96.6525 110.97 103.488C101.201 110.323 102.374 110.436 91.8937 108.187Z" fill="url(#paint0_linear_10:12)"/>
<g opacity="0.8" clip-path="url(#clip0_10:12)">
<path d="M139.242 123.731L114.688 146.496C109.854 150.977 102.573 150.685 98.4642 145.845L64.6423 106.007C61.0583 101.786 59.3306 96.295 59.7777 90.5454L60.4315 82.1376C60.5803 80.2233 60.0034 78.3919 58.8107 76.9871L56.0616 73.7489C55.2386 72.7795 55.3564 71.2643 56.3246 70.3668C57.2927 69.4692 58.7463 69.5275 59.5693 70.4968L62.3185 73.735C64.3073 76.0776 65.2648 79.1252 65.0195 82.3214L64.3657 90.7293C64.018 95.2004 65.3622 99.4713 68.1501 102.755L101.972 142.593C104.438 145.498 108.805 145.673 111.706 142.983L136.26 120.219C139.161 117.53 139.515 112.977 137.049 110.073L103.227 70.2347C100.44 66.9508 96.5447 65.0509 92.2522 64.8755L84.1858 64.5522C81.1258 64.433 78.3412 63.0729 76.3464 60.7233L73.6003 57.4886C72.7773 56.5193 72.8951 55.0041 73.8633 54.1065C74.8314 53.209 76.285 53.2672 77.108 54.2366L79.8542 57.4712C81.0498 58.8796 82.7212 59.6963 84.5577 59.77L92.6241 60.0932C98.1402 60.3143 103.151 62.761 106.735 66.9826L140.557 106.821C144.666 111.66 144.076 119.25 139.242 123.731Z" fill="#4D7A89"/>
<path d="M76.0996 56.7406L58.5609 73.0009C55.66 75.6903 51.2926 75.5153 48.8267 72.6108L45.8449 69.0986C43.379 66.1941 43.733 61.6418 46.6339 58.9524L64.1726 42.6921C67.0735 40.0027 71.4409 40.1777 73.9068 43.0822L76.8886 46.5944C79.3545 49.4989 79.0005 54.0512 76.0996 56.7406ZM49.6157 62.4645C48.6475 63.3621 48.5297 64.8772 49.3527 65.8466L52.3344 69.3587C53.1574 70.3281 54.611 70.3863 55.5791 69.4887L73.1178 53.2285C74.086 52.3309 74.2038 50.8158 73.3808 49.8464L70.3991 46.3343C69.5761 45.3649 68.1225 45.3067 67.1543 46.2042L49.6157 62.4645Z" fill="#4D7A89"/>
</g>
<defs>
<linearGradient id="paint0_linear_10:12" x1="106.685" y1="100.815" x2="117.462" y2="144.562" gradientUnits="userSpaceOnUse">
<stop stop-color="#D6F2ED"/>
<stop offset="0.947917" stop-color="#8CBBD7"/>
</linearGradient>
<clipPath id="clip0_10:12">
<rect width="114.799" height="110.572" fill="white" transform="matrix(0.733328 -0.679875 0.647198 0.762322 13.3104 89.8468)"/>
</clipPath>
</defs>
</svg>
